<svg width="26" height="26" viewBox="0 0 26 26" fill="none" xmlns="http://www.w3.org/2000/svg">
<path d="M8.66667 17.3333L18.1133 16.5457C21.0697 16.2998 21.7328 15.6542 22.0599 12.7064L22.75 6.5M6.5 6.5H9.20833M23.8333 6.5H20.0417M11.9167 9.20833C12.4497 9.7565 13.8667 11.9167 14.625 11.9167M14.625 11.9167C15.3833 11.9167 16.8003 9.7565 17.3333 9.20833M14.625 11.9167V3.25" stroke="black" stroke-width="1.5" stroke-linecap="round" stroke-linejoin="round"/>
<path d="M6.49479 23.8333C7.69141 23.8333 8.66146 22.8633 8.66146 21.6667C8.66146 20.47 7.69141 19.5 6.49479 19.5C5.29817 19.5 4.32812 20.47 4.32812 21.6667C4.32812 22.8633 5.29817 23.8333 6.49479 23.8333Z" stroke="black" stroke-width="1.5" stroke-linecap="round" stroke-linejoin="round"/>
<path d="M18.4167 23.8333C19.6133 23.8333 20.5833 22.8633 20.5833 21.6667C20.5833 20.47 19.6133 19.5 18.4167 19.5C17.22 19.5 16.25 20.47 16.25 21.6667C16.25 22.8633 17.22 23.8333 18.4167 23.8333Z" stroke="black" stroke-width="1.5" stroke-linecap="round" stroke-linejoin="round"/>
<path d="M8.66406 21.666H16.2474M2.16406 2.16602H3.21056C4.23431 2.16602 5.1259 2.8431 5.37398 3.80727L8.59906 16.3317C8.67908 16.6449 8.68651 16.9723 8.6208 17.2888C8.55509 17.6053 8.41797 17.9027 8.2199 18.1582L7.18098 19.4993" stroke="black" stroke-width="1.5" stroke-linecap="round" stroke-linejoin="round"/>
</svg>
